<svg xmlns="http://www.w3.org/2000/svg" xmlns:xlink="http://www.w3.org/1999/xlink" width="500" zoomAndPan="magnify" viewBox="0 0 375 374.999991" height="500" preserveAspectRatio="xMidYMid meet" version="1.0"><defs><clipPath id="d739739a07"><path d="M 48.574219 269.960938 L 333.367188 269.960938 L 333.367188 325.957031 L 48.574219 325.957031 Z M 48.574219 269.960938 " clip-rule="nonzero"/></clipPath><clipPath id="beb42b38fa"><path d="M 190.867188 269.960938 C 112.28125 269.960938 48.574219 282.496094 48.574219 297.957031 C 48.574219 313.421875 112.28125 325.957031 190.867188 325.957031 C 269.453125 325.957031 333.15625 313.421875 333.15625 297.957031 C 333.15625 282.496094 269.453125 269.960938 190.867188 269.960938 Z M 190.867188 269.960938 " clip-rule="nonzero"/></clipPath><clipPath id="dc641c08df"><path d="M 75 120 L 198.582031 120 L 198.582031 305.519531 L 75 305.519531 Z M 75 120 " clip-rule="nonzero"/></clipPath><clipPath id="6aad6d3a0b"><path d="M 70 84 L 228 84 L 228 211 L 70 211 Z M 70 84 " clip-rule="nonzero"/></clipPath><clipPath id="19da19569b"><path d="M 48.578125 139.683594 L 100.910156 59.371094 L 248.980469 155.863281 L 196.648438 236.171875 Z M 48.578125 139.683594 " clip-rule="nonzero"/></clipPath><clipPath id="c29641723e"><path d="M 74.742188 99.527344 C 60.292969 121.703125 81.660156 161.238281 122.464844 187.832031 C 163.273438 214.425781 208.070312 218.003906 222.523438 195.828125 C 236.972656 173.648438 215.605469 134.113281 174.800781 107.523438 C 133.992188 80.929688 89.195312 77.351562 74.742188 99.527344 Z M 74.742188 99.527344 " clip-rule="nonzero"/></clipPath><clipPath id="c2b3758976"><path d="M 70 84 L 228 84 L 228 211 L 70 211 Z M 70 84 " clip-rule="nonzero"/></clipPath><clipPath id="2853f56b71"><path d="M 48.578125 139.683594 L 100.988281 59.25 L 248.652344 155.476562 L 196.242188 235.90625 Z M 48.578125 139.683594 " clip-rule="nonzero"/></clipPath><clipPath id="5a8061f05c"><path d="M 48.578125 139.683594 L 101.339844 58.71875 L 250.675781 156.03125 L 197.914062 236.996094 Z M 48.578125 139.683594 " clip-rule="nonzero"/></clipPath><clipPath id="084efdfac6"><path d="M 74.746094 99.53125 C 60.292969 121.707031 81.660156 161.238281 122.464844 187.828125 C 163.269531 214.417969 208.0625 218 222.511719 195.824219 C 236.960938 173.648438 215.597656 134.117188 174.792969 107.527344 C 133.988281 80.9375 89.195312 77.359375 74.746094 99.53125 Z M 74.746094 99.53125 " clip-rule="nonzero"/></clipPath></defs><g clip-path="url(#d739739a07)"><g clip-path="url(#beb42b38fa)"><path fill="#000000" d="M 48.574219 269.960938 L 333.148438 269.960938 L 333.148438 325.957031 L 48.574219 325.957031 Z M 48.574219 269.960938 " fill-opacity="1" fill-rule="nonzero"/></g></g><g clip-path="url(#dc641c08df)"><path fill="#e9f559" d="M 198.210938 288.527344 L 140.375 122.742188 C 139.289062 119.640625 134.175781 119.640625 133.097656 122.742188 L 75.265625 288.527344 C 75.117188 288.9375 75.050781 289.363281 75.050781 289.800781 C 75.050781 304.792969 130.421875 305.222656 136.738281 305.222656 C 143.050781 305.222656 198.425781 304.792969 198.425781 289.800781 C 198.425781 289.371094 198.355469 288.9375 198.210938 288.527344 Z M 198.210938 288.527344 " fill-opacity="1" fill-rule="nonzero"/></g><g clip-path="url(#6aad6d3a0b)"><g clip-path="url(#19da19569b)"><g clip-path="url(#c29641723e)"><path fill="#f5ff41" d="M 48.578125 139.683594 L 100.910156 59.371094 L 248.664062 155.65625 L 196.332031 235.964844 Z M 48.578125 139.683594 " fill-opacity="1" fill-rule="nonzero"/></g></g></g><g clip-path="url(#c2b3758976)"><g clip-path="url(#2853f56b71)"><g clip-path="url(#5a8061f05c)"><g clip-path="url(#084efdfac6)"><path stroke-linecap="butt" transform="matrix(0.409468, -0.628359, 0.628359, 0.409468, 48.579961, 139.683857)" fill="none" stroke-linejoin="miter" d="M 63.901301 0.000916432 C 28.608032 -0.00171028 0.00242882 52.643759 0.00286922 117.581926 C 0.00330961 182.520094 28.608648 235.165109 63.899073 235.163372 C 99.189499 235.161635 127.797945 182.520529 127.797505 117.582362 C 127.797065 52.644195 99.187362 0.00202306 63.901301 0.000916432 Z M 63.901301 0.000916432 " stroke="#312d26" stroke-width="22" stroke-opacity="1" stroke-miterlimit="4"/></g></g></g></g><path stroke-linecap="butt" transform="matrix(0.633443, 0.40156, -0.40156, 0.633443, 224.527989, 192.666974)" fill="none" stroke-linejoin="miter" d="M 0.00050631 5.002441 L 41.309231 4.999318 " stroke="#888a76" stroke-width="10" stroke-opacity="1" stroke-miterlimit="4"/><path stroke-linecap="butt" transform="matrix(0.637669, 0.394815, -0.394815, 0.637669, 252.244147, 205.425675)" fill="none" stroke-linejoin="miter" d="M 0.00227808 11.000747 L 133.698469 11.000656 " stroke="#6e644d" stroke-width="22" stroke-opacity="1" stroke-miterlimit="4"/></svg>