<svg xmlns="http://www.w3.org/2000/svg" xmlns:xlink="http://www.w3.org/1999/xlink" width="500" zoomAndPan="magnify" viewBox="0 0 375 374.999991" height="500" preserveAspectRatio="xMidYMid meet" version="1.0"><defs><clipPath id="12d963b7fb"><path d="M 26.453125 205.511719 L 348.878906 205.511719 L 348.878906 375 L 26.453125 375 Z M 26.453125 205.511719 " clip-rule="nonzero"/></clipPath><clipPath id="dda3190128"><path d="M 187.5 205.511719 C 98.554688 205.511719 26.453125 243.453125 26.453125 290.253906 C 26.453125 337.058594 98.554688 375 187.5 375 C 276.445312 375 348.546875 337.058594 348.546875 290.253906 C 348.546875 243.453125 276.445312 205.511719 187.5 205.511719 Z M 187.5 205.511719 " clip-rule="nonzero"/></clipPath><clipPath id="079dcb112a"><path d="M 98 87 L 246 87 L 246 309 L 98 309 Z M 98 87 " clip-rule="nonzero"/></clipPath><clipPath id="4829f75cb0"><path d="M 88.050781 90.339844 L 235.625 83.117188 L 246.4375 304.105469 L 98.863281 311.324219 Z M 88.050781 90.339844 " clip-rule="nonzero"/></clipPath><clipPath id="13d091b1b9"><path d="M 88.050781 90.339844 L 235.625 83.117188 L 246.4375 304.105469 L 98.863281 311.324219 Z M 88.050781 90.339844 " clip-rule="nonzero"/></clipPath><clipPath id="e61716d318"><path d="M 88 87 L 236 87 L 236 309 L 88 309 Z M 88 87 " clip-rule="nonzero"/></clipPath><clipPath id="7f0ae3dc3b"><path d="M 78.1875 90.339844 L 225.761719 83.117188 L 236.574219 304.105469 L 89 311.324219 Z M 78.1875 90.339844 " clip-rule="nonzero"/></clipPath><clipPath id="5955082f17"><path d="M 78.1875 90.339844 L 225.761719 83.117188 L 236.574219 304.105469 L 89 311.324219 Z M 78.1875 90.339844 " clip-rule="nonzero"/></clipPath><clipPath id="19e78ba12e"><path d="M 87 33 L 257 33 L 257 211 L 87 211 Z M 87 33 " clip-rule="nonzero"/></clipPath><clipPath id="7fc1dd956e"><path d="M 53.199219 92.398438 L 159.816406 -0.125 L 291.011719 151.050781 L 184.394531 243.574219 Z M 53.199219 92.398438 " clip-rule="nonzero"/></clipPath><clipPath id="de8b7fa632"><path d="M 106.507812 46.136719 C 77.066406 71.6875 82.546875 126.214844 118.75 167.933594 C 154.953125 209.648438 208.167969 222.753906 237.609375 197.207031 C 267.050781 171.65625 261.566406 117.125 225.367188 75.410156 C 189.164062 33.691406 135.949219 20.585938 106.507812 46.136719 Z M 106.507812 46.136719 " clip-rule="nonzero"/></clipPath><clipPath id="64261a545d"><path d="M 87 33 L 257 33 L 257 211 L 87 211 Z M 87 33 " clip-rule="nonzero"/></clipPath><clipPath id="18949ec3d4"><path d="M 53.199219 92.398438 L 159.691406 -0.0195312 L 290.941406 151.222656 L 184.449219 243.636719 Z M 53.199219 92.398438 " clip-rule="nonzero"/></clipPath><clipPath id="b8128f7d61"><path d="M 53.203125 92.394531 L 160.253906 -0.503906 L 292.566406 151.960938 L 185.515625 244.863281 Z M 53.203125 92.394531 " clip-rule="nonzero"/></clipPath><clipPath id="9ea21cb30b"><path d="M 106.507812 46.136719 C 77.066406 71.683594 82.546875 126.210938 118.75 167.925781 C 154.949219 209.640625 208.164062 222.746094 237.601562 197.199219 C 267.042969 171.652344 261.5625 117.121094 225.359375 75.40625 C 189.160156 33.691406 135.945312 20.585938 106.507812 46.136719 Z M 106.507812 46.136719 " clip-rule="nonzero"/></clipPath><clipPath id="b6c0cef903"><path d="M 93 27 L 263 27 L 263 205 L 93 205 Z M 93 27 " clip-rule="nonzero"/></clipPath><clipPath id="f7959ffd18"><path d="M 58.890625 86.707031 L 165.503906 -5.816406 L 296.699219 145.363281 L 190.085938 237.882812 Z M 58.890625 86.707031 " clip-rule="nonzero"/></clipPath><clipPath id="6f65886a19"><path d="M 112.199219 40.445312 C 82.757812 65.996094 88.238281 120.527344 124.441406 162.242188 C 160.644531 203.957031 213.859375 217.066406 243.296875 191.515625 C 272.738281 165.964844 267.257812 111.433594 231.054688 69.71875 C 194.851562 28.003906 141.636719 14.894531 112.199219 40.445312 Z M 112.199219 40.445312 " clip-rule="nonzero"/></clipPath><clipPath id="ff4a635195"><path d="M 93 27 L 263 27 L 263 205 L 93 205 Z M 93 27 " clip-rule="nonzero"/></clipPath><clipPath id="91516be31a"><path d="M 58.890625 86.707031 L 165.378906 -5.707031 L 296.628906 145.53125 L 190.140625 237.949219 Z M 58.890625 86.707031 " clip-rule="nonzero"/></clipPath><clipPath id="a5481ef505"><path d="M 58.890625 86.707031 L 165.941406 -6.195312 L 298.257812 146.269531 L 191.207031 239.171875 Z M 58.890625 86.707031 " clip-rule="nonzero"/></clipPath><clipPath id="07ae13a46d"><path d="M 112.195312 40.445312 C 82.757812 65.996094 88.238281 120.523438 124.441406 162.238281 C 160.640625 203.953125 213.855469 217.058594 243.292969 191.507812 C 272.734375 165.960938 267.253906 111.433594 231.050781 69.71875 C 194.851562 28.003906 141.636719 14.898438 112.195312 40.445312 Z M 112.195312 40.445312 " clip-rule="nonzero"/></clipPath><clipPath id="fe9944660a"><path d="M 117 64 L 225 64 L 225 181 L 117 181 Z M 117 64 " clip-rule="nonzero"/></clipPath><clipPath id="b4c100ae75"><path d="M 96.089844 96.621094 L 155.953125 44.671875 L 245.644531 148.027344 L 185.785156 199.976562 Z M 96.089844 96.621094 " clip-rule="nonzero"/></clipPath><clipPath id="7e7e08f597"><path d="M 126.222656 70.878906 C 109.691406 85.226562 116.316406 119.929688 141.019531 148.394531 C 165.722656 176.859375 199.148438 188.304688 215.675781 173.957031 C 232.207031 159.613281 225.582031 124.910156 200.882812 96.445312 C 176.179688 67.980469 142.753906 56.535156 126.222656 70.878906 Z M 126.222656 70.878906 " clip-rule="nonzero"/></clipPath></defs><g clip-path="url(#12d963b7fb)"><g clip-path="url(#dda3190128)"><path fill="#312d26" d="M 26.453125 205.511719 L 348.21875 205.511719 L 348.21875 375 L 26.453125 375 Z M 26.453125 205.511719 " fill-opacity="1" fill-rule="nonzero"/></g></g><g clip-path="url(#079dcb112a)"><g clip-path="url(#4829f75cb0)"><g clip-path="url(#13d091b1b9)"><path fill="#e2ef4e" d="M 244.855469 284.457031 L 166.308594 90.359375 C 164.832031 86.730469 158.742188 87.027344 157.636719 90.78125 L 98.414062 291.621094 C 98.265625 292.117188 98.207031 292.625 98.234375 293.148438 C 99.105469 311.003906 165.085938 308.292969 172.609375 307.925781 C 180.128906 307.554688 246.058594 303.8125 245.1875 285.960938 C 245.160156 285.445312 245.054688 284.933594 244.855469 284.457031 Z M 244.855469 284.457031 " fill-opacity="1" fill-rule="nonzero"/></g></g></g><g clip-path="url(#e61716d318)"><g clip-path="url(#7f0ae3dc3b)"><g clip-path="url(#5955082f17)"><path fill="#f1ff4e" d="M 234.992188 284.457031 L 156.445312 90.359375 C 154.96875 86.730469 148.878906 87.027344 147.773438 90.78125 L 88.550781 291.621094 C 88.402344 292.117188 88.34375 292.625 88.367188 293.148438 C 89.242188 311.003906 155.222656 308.292969 162.746094 307.925781 C 170.265625 307.554688 236.195312 303.8125 235.324219 285.960938 C 235.296875 285.445312 235.1875 284.933594 234.992188 284.457031 Z M 234.992188 284.457031 " fill-opacity="1" fill-rule="nonzero"/></g></g></g><g clip-path="url(#19e78ba12e)"><g clip-path="url(#7fc1dd956e)"><g clip-path="url(#de8b7fa632)"><path fill="#f5ff41" d="M 53.199219 92.398438 L 159.816406 -0.125 L 291.011719 151.050781 L 184.394531 243.574219 Z M 53.199219 92.398438 " fill-opacity="1" fill-rule="nonzero"/></g></g></g><g clip-path="url(#64261a545d)"><g clip-path="url(#18949ec3d4)"><g clip-path="url(#b8128f7d61)"><g clip-path="url(#9ea21cb30b)"><path stroke-linecap="butt" transform="matrix(0.566442, -0.491572, 0.491572, 0.566442, 53.201346, 92.396149)" fill="none" stroke-linejoin="miter" d="M 94.106459 0.00122275 C 42.133145 -0.00189029 0.000237399 59.697014 0.00222311 133.342344 C 0.0002752 206.984262 42.135114 266.686361 94.104495 266.68606 C 146.077808 266.689174 188.21413 206.986336 188.212144 133.341005 C 188.214092 59.699088 146.079253 -0.00301153 94.106459 0.00122275 Z M 94.106459 0.00122275 " stroke="#0a0908" stroke-width="58" stroke-opacity="1" stroke-miterlimit="4"/></g></g></g></g><path stroke-linecap="butt" transform="matrix(0.490021, 0.567785, -0.567785, 0.490021, 237.933373, 186.083263)" fill="none" stroke-linejoin="miter" d="M -0.00162085 12.498828 L 69.470763 12.49876 " stroke="#717362" stroke-width="25" stroke-opacity="1" stroke-miterlimit="4"/><path stroke-linecap="butt" transform="matrix(0.490021, 0.567785, -0.567785, 0.490021, 243.590686, 186.083263)" fill="none" stroke-linejoin="miter" d="M -0.00254708 12.499901 L 69.469836 12.499833 " stroke="#888a76" stroke-width="25" stroke-opacity="1" stroke-miterlimit="4"/><path stroke-linecap="round" transform="matrix(0.489017, 0.568649, -0.568649, 0.489017, 265.171187, 208.326886)" fill="none" stroke-linejoin="miter" d="M 20.499038 20.498586 L 190.349041 20.500315 " stroke="#0a0908" stroke-width="41" stroke-opacity="1" stroke-miterlimit="4"/><path stroke-linecap="round" transform="matrix(0.489017, 0.568649, -0.568649, 0.489017, 268.139226, 204.302036)" fill="none" stroke-linejoin="miter" d="M 20.501084 20.499095 L 190.351088 20.500824 " stroke="#6e644d" stroke-width="41" stroke-opacity="1" stroke-miterlimit="4"/><g clip-path="url(#b6c0cef903)"><g clip-path="url(#f7959ffd18)"><g clip-path="url(#6f65886a19)"><path fill="#ebff00" d="M 58.890625 86.707031 L 165.503906 -5.816406 L 296.699219 145.363281 L 190.085938 237.882812 Z M 58.890625 86.707031 " fill-opacity="1" fill-rule="nonzero"/></g></g></g><g clip-path="url(#ff4a635195)"><g clip-path="url(#91516be31a)"><g clip-path="url(#a5481ef505)"><g clip-path="url(#07ae13a46d)"><path stroke-linecap="butt" transform="matrix(0.566442, -0.491572, 0.491572, 0.566442, 58.891678, 86.705824)" fill="none" stroke-linejoin="miter" d="M 94.104552 -0.00234112 C 42.131758 0.00189316 -0.00115023 59.700797 0.000835479 133.346128 C -0.00111243 206.988045 42.133727 266.690145 94.106521 266.68591 C 146.079835 266.689023 188.212743 206.990119 188.210757 133.344789 C 188.208771 59.699458 146.077866 0.000771922 94.104552 -0.00234112 Z M 94.104552 -0.00234112 " stroke="#6e644d" stroke-width="58" stroke-opacity="1" stroke-miterlimit="4"/></g></g></g></g><g clip-path="url(#fe9944660a)"><g clip-path="url(#b4c100ae75)"><g clip-path="url(#7e7e08f597)"><path fill="#f4ff70" d="M 96.292969 96.855469 L 156.152344 44.90625 L 245.644531 148.027344 L 185.785156 199.976562 Z M 96.292969 96.855469 " fill-opacity="1" fill-rule="nonzero"/></g></g></g></svg>